<svg width="338" height="79" viewBox="0 0 338 79" fill="none" xmlns="http://www.w3.org/2000/svg">
<path d="M331.186 0C240.124 4.41896 25.2592 0.775043 0 0C2.76633 33.3675 2.09153 50.9865 0 78.664H337.456C333.358 47.9434 328.314 30.7223 331.186 0Z" fill="#AF5E00"/>
<path d="M3.41992 73.5359L10.2603 8.55273L325.485 5.13257L330.046 70.1157L263.352 70.814L258.792 60.4252L257.082 70.8797L3.41992 73.5359Z" fill="#FFCD27"/>
<mask id="mask0_19_22" style="mask-type:alpha" maskUnits="userSpaceOnUse" x="3" y="5" width="328" height="69">
<path d="M3.41992 73.5354L10.2603 8.55224L325.485 5.13208L330.046 70.1152L263.352 70.8136L258.792 60.4247L257.082 70.8792L3.41992 73.5354Z" fill="#79CDCF"/>
</mask>
<g mask="url(#mask0_19_22)">
<path d="M-36.4819 72.9653C53.5735 38.6659 209.627 44.0081 194.44 -15.3889L-21.6212 -7.96951L-36.4819 72.9653Z" fill="#FFFB64"/>
</g>
</svg>
