<svg width="35" height="33" viewBox="0 0 35 33" fill="none" xmlns="http://www.w3.org/2000/svg">
<g id="hamburger">
<path id="Vector 69" d="M13 0L0 18L14 33L32 28L35 10L13 0Z" fill="#AF123E"/>
<g id="Group 452">
<path id="Vector 68" d="M1.5 17.1035L14.0091 1.5L33.0508 9.83979L31.6609 25.8468L14.0091 31.6309L1.5 17.776V17.1035Z" fill="#FF4B4B"/>
</g>
<path id="Vector 70" d="M15 3.5L3.5 17.5L11 26L26 8.5L15 3.5Z" fill="#FF7F60"/>
<g id="Group 469">
<g id="Group 467">
<g id="Group 466">
<path id="Vector 71" d="M11.5 14V10.5H25.5V14H11.5Z" fill="#B0133F"/>
</g>
<g id="Group 454">
<rect id="Rectangle 53" x="12" y="11" width="13" height="2.5" fill="white"/>
</g>
</g>
<g id="Group 468">
<g id="Group 466_2">
<path id="Vector 71_2" d="M11.5 14V11H25V14H11.5Z" fill="#B0133F"/>
</g>
<g id="Group 454_2">
<rect id="Rectangle 53_2" x="12.0156" y="11" width="12.9844" height="2.5" fill="white"/>
</g>
</g>
</g>
<g id="Group 470">
<g id="Group 467_2">
<g id="Group 466_3">
<path id="Vector 71_3" d="M11.5 18V14.5H25.5V18H11.5Z" fill="#B0133F"/>
</g>
<g id="Group 454_3">
<rect id="Rectangle 53_3" x="12" y="15" width="13" height="2.5" fill="white"/>
</g>
</g>
<g id="Group 468_2">
<g id="Group 466_4">
<path id="Vector 71_4" d="M11.5 18V15H25V18H11.5Z" fill="#B0133F"/>
</g>
<g id="Group 454_4">
<rect id="Rectangle 53_4" x="12.0156" y="15" width="12.9844" height="2.5" fill="white"/>
</g>
</g>
</g>
<g id="Group 471">
<g id="Group 467_3">
<g id="Group 466_5">
<path id="Vector 71_5" d="M11.5 22V18.5H25.5V22H11.5Z" fill="#B0133F"/>
</g>
<g id="Group 454_5">
<rect id="Rectangle 53_5" x="12" y="19" width="13" height="2.5" fill="white"/>
</g>
</g>
</g>
</g>
</svg>
