<svg width="44" height="44" viewBox="0 0 44 44" fill="none" xmlns="http://www.w3.org/2000/svg">
<g id="Frame" clip-path="url(#clip0_769_12440)">
<g id="Group">
<g id="OBJECTS">
<g id="Group_2">
<g id="Group_3">
<path id="Vector" d="M21.9368 43.067C33.5824 43.067 43.023 33.6263 43.023 21.9807C43.023 10.3351 33.5824 0.894531 21.9368 0.894531C10.2912 0.894531 0.850586 10.3351 0.850586 21.9807C0.850586 33.6263 10.2912 43.067 21.9368 43.067Z" fill="#9D21FF"/>
<g id="Group_4">
<path id="Vector_2" d="M21.9563 12.4299C25.2107 12.4299 25.5943 12.4427 26.8794 12.5002C28.0687 12.5514 28.7144 12.756 29.1428 12.9222C29.7118 13.146 30.121 13.4081 30.543 13.8365C30.9714 14.2649 31.2335 14.6677 31.4573 15.2367C31.6235 15.6651 31.8217 16.3108 31.8793 17.5C31.9368 18.7852 31.9496 19.1688 31.9496 22.4231C31.9496 25.6775 31.9368 26.0611 31.8793 27.3462C31.8281 28.5354 31.6235 29.1812 31.4573 29.6096C31.2335 30.1786 30.9714 30.5814 30.543 31.0098C30.1146 31.4382 29.7118 31.7003 29.1428 31.9241C28.7144 32.0903 28.0687 32.2885 26.8794 32.3461C25.5943 32.4036 25.2107 32.4164 21.9563 32.4164C18.702 32.4164 18.3184 32.4036 17.0332 32.3461C15.844 32.2949 15.1983 32.0903 14.7699 31.9241C14.2009 31.7003 13.7981 31.4382 13.3697 31.0098C12.9413 30.5814 12.6792 30.1786 12.4554 29.6096C12.2892 29.1812 12.091 28.5354 12.0334 27.3462C11.9759 26.0611 11.9631 25.6775 11.9631 22.4231C11.9631 19.1688 11.9759 18.7852 12.0334 17.5C12.0846 16.3108 12.2892 15.6651 12.4554 15.2367C12.6792 14.6677 12.9413 14.2649 13.3697 13.8365C13.7981 13.4081 14.2009 13.146 14.7699 12.9222C15.1983 12.756 15.844 12.5578 17.0332 12.5002C18.3184 12.4427 18.702 12.4299 21.9563 12.4299ZM21.9563 10.2305C18.6444 10.2305 18.2288 10.2433 16.9309 10.3008C15.633 10.3583 14.7443 10.5629 13.9707 10.8698C13.1715 11.1831 12.4874 11.5987 11.8096 12.2764C11.1319 12.9542 10.7163 13.6319 10.403 14.4375C10.1025 15.2111 9.89794 16.0998 9.834 17.3977C9.77646 18.6956 9.76367 19.1112 9.76367 22.4231C9.76367 25.735 9.77646 26.1506 9.834 27.4485C9.89154 28.7464 10.0961 29.6288 10.403 30.4088C10.7163 31.208 11.1319 31.8921 11.8096 32.5698C12.4874 33.2476 13.1651 33.6631 13.9707 33.9764C14.7443 34.2769 15.633 34.4815 16.9309 34.5455C18.2288 34.603 18.6444 34.6158 21.9563 34.6158C25.2682 34.6158 25.6838 34.603 26.9817 34.5455C28.2796 34.4879 29.1684 34.2833 29.942 33.9764C30.7412 33.6631 31.4253 33.2476 32.103 32.5698C32.7808 31.8921 33.1964 31.2144 33.5096 30.4088C33.8101 29.6352 34.0147 28.7464 34.0787 27.4485C34.1362 26.1506 34.149 25.735 34.149 22.4231C34.149 19.1112 34.1362 18.6956 34.0787 17.3977C34.0211 16.0998 33.8165 15.2175 33.5096 14.4375C33.1964 13.6383 32.7808 12.9542 32.103 12.2764C31.4253 11.5987 30.7476 11.1831 29.942 10.8698C29.1684 10.5693 28.2796 10.3647 26.9817 10.3008C25.6838 10.2433 25.2682 10.2305 21.9563 10.2305Z" fill="white"/>
<path id="Vector_3" d="M21.9566 16.1641C18.4977 16.1641 15.6973 18.9645 15.6973 22.4234C15.6973 25.8824 18.4977 28.6828 21.9566 28.6828C25.4156 28.6828 28.216 25.8824 28.216 22.4234C28.216 18.9645 25.4156 16.1641 21.9566 16.1641ZM21.9566 26.4834C19.7125 26.4834 17.8967 24.6612 17.8967 22.4234C17.8967 20.1857 19.7189 18.3635 21.9566 18.3635C24.1944 18.3635 26.0166 20.1857 26.0166 22.4234C26.0166 24.6612 24.1944 26.4834 21.9566 26.4834Z" fill="white"/>
<path id="Vector_4" d="M29.9205 15.9173C29.9205 16.7229 29.2683 17.3814 28.4563 17.3814C27.6443 17.3814 26.9922 16.7293 26.9922 15.9173C26.9922 15.1053 27.6443 14.4531 28.4563 14.4531C29.2683 14.4531 29.9205 15.1053 29.9205 15.9173Z" fill="white"/>
</g>
</g>
</g>
</g>
</g>
</g>
<defs>
<clipPath id="clip0_769_12440">
<rect width="42.166" height="42.166" fill="white" transform="translate(0.84668 0.890625)"/>
</clipPath>
</defs>
</svg>
