<svg width="43" height="44" viewBox="0 0 43 44" fill="none" xmlns="http://www.w3.org/2000/svg">
<g clip-path="url(#clip0_769_12450)">
<path d="M21.2884 43.067C32.934 43.067 42.3746 33.6263 42.3746 21.9807C42.3746 10.3351 32.934 0.894531 21.2884 0.894531C9.64277 0.894531 0.202148 10.3351 0.202148 21.9807C0.202148 33.6263 9.64277 43.067 21.2884 43.067Z" fill="#FF218C"/>
<path fill-rule="evenodd" clip-rule="evenodd" d="M11.6228 12.9746H30.9489C32.2831 12.9746 33.3647 14.0562 33.3647 15.3904V15.3915C33.1427 15.3913 32.918 15.4523 32.7168 15.5801L21.8886 22.4609L21.8859 22.4626C21.7058 22.5747 21.498 22.6342 21.2858 22.6342C21.0737 22.6342 20.8658 22.5747 20.6858 22.4626L9.85487 15.5801C9.65365 15.4523 9.429 15.3913 9.20703 15.3915V15.3904C9.20703 14.0562 10.2886 12.9746 11.6228 12.9746ZM9.20703 18.0308V29.8849C9.20703 31.2191 10.2886 32.3007 11.6228 32.3007H30.9489C32.2831 32.3007 33.3647 31.2191 33.3647 29.8849V18.0308L23.1778 24.504L23.1713 24.5082L23.1713 24.5081C22.6061 24.8622 21.9527 25.05 21.2858 25.05C20.619 25.05 19.9655 24.8622 19.4004 24.5081L19.3939 24.504L19.3939 24.504L9.20703 18.0308Z" fill="white"/>
</g>
<defs>
<clipPath id="clip0_769_12450">
<rect width="42.166" height="42.166" fill="white" transform="translate(0.196289 0.890625)"/>
</clipPath>
</defs>
</svg>
