<svg width="296" height="69" viewBox="0 0 296 69" fill="none" xmlns="http://www.w3.org/2000/svg">
<path d="M290.5 0C210.625 3.8761 22.1561 0.679829 0 0C2.42649 29.2684 1.83459 44.7229 0 69.0002H296C292.405 42.0536 287.981 26.9481 290.5 0Z" fill="#0B7173"/>
<path d="M2.99988 64.502L8.99988 7.50195L285.5 4.50195L289.5 61.502L231 62.1145L227 53.002L225.5 62.1721L2.99988 64.502Z" fill="#79CDCF"/>
<mask id="mask0_1_26" style="mask-type:alpha" maskUnits="userSpaceOnUse" x="2" y="4" width="288" height="61">
<path d="M2.99988 64.502L8.99988 7.50195L285.5 4.50195L289.5 61.502L231 62.1145L227 53.002L225.5 62.1721L2.99988 64.502Z" fill="#79CDCF"/>
</mask>
<g mask="url(#mask0_1_26)">
<path d="M-32.0001 64.002C46.9921 33.9162 183.875 38.6021 170.553 -13.498L-18.965 -6.99011L-32.0001 64.002Z" fill="#A4FDFF"/>
</g>
</svg>
